<svg id="visual" viewBox="0 0 900 600" width="900" height="600" xmlns="http://www.w3.org/2000/svg" xmlns:xlink="http://www.w3.org/1999/xlink" version="1.1"><rect x="0" y="0" width="900" height="600" fill="#FFFFFF"></rect><path d="M0 368L21.5 376.3C43 384.7 86 401.3 128.8 398.8C171.7 396.3 214.3 374.7 257.2 370.3C300 366 343 379 385.8 392.7C428.7 406.3 471.3 420.7 514.2 427C557 433.3 600 431.7 642.8 434C685.7 436.3 728.3 442.7 771.2 431.2C814 419.7 857 390.3 878.5 375.7L900 361L900 601L878.5 601C857 601 814 601 771.2 601C728.3 601 685.7 601 642.8 601C600 601 557 601 514.2 601C471.3 601 428.7 601 385.8 601C343 601 300 601 257.2 601C214.3 601 171.7 601 128.8 601C86 601 43 601 21.5 601L0 601Z" fill="#0066ff"></path><path d="M0 462L21.5 458.8C43 455.7 86 449.3 128.8 441.2C171.7 433 214.3 423 257.2 421C300 419 343 425 385.8 431.5C428.7 438 471.3 445 514.2 450.8C557 456.7 600 461.3 642.8 451.7C685.7 442 728.3 418 771.2 409.7C814 401.3 857 408.7 878.5 412.3L900 416L900 601L878.5 601C857 601 814 601 771.2 601C728.3 601 685.7 601 642.8 601C600 601 557 601 514.2 601C471.3 601 428.7 601 385.8 601C343 601 300 601 257.2 601C214.3 601 171.7 601 128.8 601C86 601 43 601 21.5 601L0 601Z" fill="#8c4ddc"></path><path d="M0 484L21.5 484.5C43 485 86 486 128.8 489.3C171.7 492.7 214.3 498.3 257.2 499.5C300 500.7 343 497.3 385.8 494.2C428.7 491 471.3 488 514.2 485.5C557 483 600 481 642.8 474.2C685.7 467.3 728.3 455.7 771.2 458C814 460.3 857 476.7 878.5 484.8L900 493L900 601L878.5 601C857 601 814 601 771.2 601C728.3 601 685.7 601 642.8 601C600 601 557 601 514.2 601C471.3 601 428.7 601 385.8 601C343 601 300 601 257.2 601C214.3 601 171.7 601 128.8 601C86 601 43 601 21.5 601L0 601Z" fill="#b434b4"></path><path d="M0 482L21.5 492C43 502 86 522 128.8 528.7C171.7 535.3 214.3 528.7 257.2 522.8C300 517 343 512 385.8 509.2C428.7 506.3 471.3 505.7 514.2 508.8C557 512 600 519 642.8 519.5C685.7 520 728.3 514 771.2 516.3C814 518.7 857 529.3 878.5 534.7L900 540L900 601L878.5 601C857 601 814 601 771.2 601C728.3 601 685.7 601 642.8 601C600 601 557 601 514.2 601C471.3 601 428.7 601 385.8 601C343 601 300 601 257.2 601C214.3 601 171.7 601 128.8 601C86 601 43 601 21.5 601L0 601Z" fill="#c5218c"></path><path d="M0 560L21.5 556.8C43 553.7 86 547.3 128.8 548C171.7 548.7 214.3 556.3 257.2 559.3C300 562.3 343 560.7 385.8 554.3C428.7 548 471.3 537 514.2 537.3C557 537.7 600 549.3 642.8 552.7C685.7 556 728.3 551 771.2 548.3C814 545.7 857 545.3 878.5 545.2L900 545L900 601L878.5 601C857 601 814 601 771.2 601C728.3 601 685.7 601 642.8 601C600 601 557 601 514.2 601C471.3 601 428.7 601 385.8 601C343 601 300 601 257.2 601C214.3 601 171.7 601 128.8 601C86 601 43 601 21.5 601L0 601Z" fill="#c62368"></path></svg>